<svg viewBox="0 0 400 180" xmlns="http://www.w3.org/2000/svg">
  <path d="m189.5 40 33-29 18 31 57-22-13 32 73-10-43 27 75 4-63 16 64 17-75 4 41 25-72-7 14 31-57-21-20 31-32-29-47 25-2-32-67 15 28-28-75 2 55-21-72-12 71-11-53-22 75 3-28-29 66 15 2-33z" fill="#868e96"/> <!--/ #c03132 / stroke="#dee2e6" stroke-width="3" /-->

  <g fill="#f8f9fa"> <!--/ #f8f9fa /-->
    <path d="m137.95 107.275h6.5v-33.75l8.7 33.75h13.2v-35h-6.5v34l-9-34h-12.9z"/>
    <path d="m174.35 107.275h23.5v-6.25h-16.75v-8.75h15.2v-6.1h-15.2v-7.65h16.75v-6.25h-23.5z"/>
    <path d="m217.15 107.725c8.35 0 13.9-5 13.9-13.05v-22.4h-6.75v22.3c0 3.7-1.55 6.9-7.15 6.9-5.5 0-7.05-3.2-7.05-6.9v-22.3h-6.75v22.4c0 8.05 5.6 13.05 13.8 13.05z"/>
    <path d="m238.55 107.275h23.5v-6.25h-16.75v-8.75h15.2v-6.1h-15.2v-7.65h16.75v-6.25h-23.5z"/>
  </g>
</svg>
