<svg viewBox="0 0 1100 300" xmlns="http://www.w3.org/2000/svg">
  <g fill="#f8f9fa" fill-rule="nonzero">
    <path d="m1014.83 258.864h26.79v-34.56h-36.29v-85.248h36.29v-31.68h-36.29v-28.512h-36.002v28.512h-22.176v31.68h22.176v75.744c0 27.36 19.296 44.064 45.502 44.064z"/>
    <path d="m864.496 261.456c35.712 0 62.208-18.432 65.664-49.824h-36.288c-1.44 11.52-13.824 18.144-29.376 18.144-18.432 0-31.392-8.352-31.392-29.376v-2.592h97.632v-30.24c0-39.168-27.648-62.784-66.24-62.784s-66.528 23.616-66.528 62.784v31.104c0 39.168 27.936 62.784 66.528 62.784zm-31.392-91.872v-5.472c0-16.992 12.96-26.784 31.392-26.784s31.104 11.232 31.104 26.784v5.472z"/>
    <path d="m645.904 258.864h36v-93.312c0-15.264 10.944-26.208 28.224-26.208 21.6 0 28.8 12.96 28.8 26.208v93.312h36v-100.8c0-33.696-25.056-53.28-57.6-53.28-18.432 0-29.088 5.472-35.424 10.368v-7.776h-36z"/>
    <path d="m538.48 258.864h36v-83.808c0-21.888 11.232-33.12 31.968-33.12h22.176v-34.56h-22.176c-19.584 0-27.936 5.472-31.968 10.368v-10.368h-36z"/>
    <path d="m446.32 261.456c35.712 0 62.208-18.432 65.664-49.824h-36.288c-1.44 11.52-13.824 18.144-29.376 18.144-18.432 0-31.392-8.352-31.392-29.376v-2.592h97.632v-30.24c0-39.168-27.648-62.784-66.24-62.784s-66.528 23.616-66.528 62.784v31.104c0 39.168 27.936 62.784 66.528 62.784zm-31.392-91.872v-5.472c0-16.992 12.96-26.784 31.392-26.784s31.104 11.232 31.104 26.784v5.472z"/>
    <path d="m333.712 258.864h26.784v-34.56h-36.288v-85.248h36.288v-31.68h-36.288v-28.512h-36v28.512h-22.176v31.68h22.176v75.744c0 27.36 19.296 44.064 45.504 44.064z"/>
    <path d="m120.592 258.864h36v-93.312c0-15.264 10.944-26.208 28.224-26.208 21.6 0 28.8 12.96 28.8 26.208v93.312h36v-100.8c0-33.696-25.056-53.28-57.6-53.28-18.432 0-29.088 5.472-35.424 10.368v-7.776h-36z"/>
    <path d="m58.672 258.864h36v-151.488h-36zm-.288-180.576h36.288v-39.744h-36.288z"/>
  </g>
</svg>
